<?xml version="1.0" encoding="iso-8859-1"?>
<!-- Generator: Adobe Illustrator 19.1.0, SVG Export Plug-In . SVG Version: 6.00 Build 0)  -->
<svg version="1.1" id="Capa_1" xmlns="http://www.w3.org/2000/svg" xmlns:xlink="http://www.w3.org/1999/xlink" x="0px" y="0px"
	 viewBox="0 0 491.857 491.857" style="enable-background:new 0 0 491.857 491.857;" xml:space="preserve">
<g>
	<g>
		<g>
			<path d="M268.888,377.021c-7.426,0-13.445-6.019-13.445-13.445V128.281c0-7.425,6.019-13.445,13.445-13.445l218.487,121.01
				c0,0,10.085,10.084,0,20.166C477.292,266.096,268.888,377.021,268.888,377.021z"/>
			<path d="M13.447,377.021C6.02,377.021,0,371.002,0,363.575V128.281c0-7.425,6.02-13.445,13.447-13.445l218.487,121.01
				c0,0,10.084,10.084,0,20.166C221.85,266.095,13.447,377.021,13.447,377.021z"/>
		</g>
	</g>
	<g>
	</g>
	<g>
	</g>
	<g>
	</g>
	<g>
	</g>
	<g>
	</g>
	<g>
	</g>
	<g>
	</g>
	<g>
	</g>
	<g>
	</g>
	<g>
	</g>
	<g>
	</g>
	<g>
	</g>
	<g>
	</g>
	<g>
	</g>
	<g>
	</g>
</g>
<g>
</g>
<g>
</g>
<g>
</g>
<g>
</g>
<g>
</g>
<g>
</g>
<g>
</g>
<g>
</g>
<g>
</g>
<g>
</g>
<g>
</g>
<g>
</g>
<g>
</g>
<g>
</g>
<g>
</g>
</svg>
