<?xml version="1.0" encoding="UTF-8" standalone="no"?>
<!-- Generator: Adobe Illustrator 16.0.0, SVG Export Plug-In . SVG Version: 6.00 Build 0)  -->

<svg
   xmlns:dc="http://purl.org/dc/elements/1.1/"
   xmlns:cc="http://creativecommons.org/ns#"
   xmlns:rdf="http://www.w3.org/1999/02/22-rdf-syntax-ns#"
   xmlns:svg="http://www.w3.org/2000/svg"
   xmlns="http://www.w3.org/2000/svg"
   xmlns:sodipodi="http://sodipodi.sourceforge.net/DTD/sodipodi-0.dtd"
   xmlns:inkscape="http://www.inkscape.org/namespaces/inkscape"
   version="1.1"
   id="Capa_1"
   x="0px"
   y="0px"
   width="115.3px"
   height="115.3px"
   viewBox="0 0 115.3 115.3"
   style="enable-background:new 0 0 115.3 115.3;"
   xml:space="preserve"
   sodipodi:docname="audio-speaker-on.svg"
   inkscape:version="0.92.3 (2405546, 2018-03-11)"><metadata
   id="metadata187"><rdf:RDF><cc:Work
       rdf:about=""><dc:format>image/svg+xml</dc:format><dc:type
         rdf:resource="http://purl.org/dc/dcmitype/StillImage" /></cc:Work></rdf:RDF></metadata><defs
   id="defs185" /><sodipodi:namedview
   pagecolor="#ffffff"
   bordercolor="#666666"
   borderopacity="1"
   objecttolerance="10"
   gridtolerance="10"
   guidetolerance="10"
   inkscape:pageopacity="0"
   inkscape:pageshadow="2"
   inkscape:window-width="1307"
   inkscape:window-height="713"
   id="namedview183"
   showgrid="false"
   inkscape:zoom="4.6140502"
   inkscape:cx="57.650002"
   inkscape:cy="57.650002"
   inkscape:window-x="59"
   inkscape:window-y="27"
   inkscape:window-maximized="1"
   inkscape:current-layer="Capa_1" />
<g
   id="g150"
   style="fill:#6f42c1;fill-opacity:1">
	<path
   d="M47.9,14.306L26,30.706H6c-3.3,0-6,2.7-6,6v41.8c0,3.301,2.7,6,6,6h20l21.9,16.4c4,3,9.6,0.2,9.6-4.8v-77   C57.5,14.106,51.8,11.306,47.9,14.306z"
   id="path144"
   style="fill:#6f42c1;fill-opacity:1" />
	<path
   d="M77.3,24.106c-2.7-2.7-7.2-2.7-9.899,0c-2.7,2.7-2.7,7.2,0,9.9c13,13,13,34.101,0,47.101c-2.7,2.7-2.7,7.2,0,9.899   c1.399,1.4,3.199,2,4.899,2s3.601-0.699,4.9-2.1C95.8,72.606,95.8,42.606,77.3,24.106z"
   id="path146"
   style="fill:#6f42c1;fill-opacity:1" />
	<path
   d="M85.1,8.406c-2.699,2.7-2.699,7.2,0,9.9c10.5,10.5,16.301,24.4,16.301,39.3s-5.801,28.8-16.301,39.3   c-2.699,2.7-2.699,7.2,0,9.9c1.4,1.399,3.2,2.1,4.9,2.1c1.8,0,3.6-0.7,4.9-2c13.1-13.1,20.399-30.6,20.399-49.2   c0-18.6-7.2-36-20.399-49.2C92.3,5.706,87.9,5.706,85.1,8.406z"
   id="path148"
   style="fill:#6f42c1;fill-opacity:1" />
</g>
<g
   id="g152">
</g>
<g
   id="g154">
</g>
<g
   id="g156">
</g>
<g
   id="g158">
</g>
<g
   id="g160">
</g>
<g
   id="g162">
</g>
<g
   id="g164">
</g>
<g
   id="g166">
</g>
<g
   id="g168">
</g>
<g
   id="g170">
</g>
<g
   id="g172">
</g>
<g
   id="g174">
</g>
<g
   id="g176">
</g>
<g
   id="g178">
</g>
<g
   id="g180">
</g>
</svg>