<?xml version="1.0" encoding="UTF-8" standalone="no"?>
<!-- Generator: Adobe Illustrator 16.0.0, SVG Export Plug-In . SVG Version: 6.00 Build 0)  -->

<svg
   xmlns:dc="http://purl.org/dc/elements/1.1/"
   xmlns:cc="http://creativecommons.org/ns#"
   xmlns:rdf="http://www.w3.org/1999/02/22-rdf-syntax-ns#"
   xmlns:svg="http://www.w3.org/2000/svg"
   xmlns="http://www.w3.org/2000/svg"
   xmlns:sodipodi="http://sodipodi.sourceforge.net/DTD/sodipodi-0.dtd"
   xmlns:inkscape="http://www.inkscape.org/namespaces/inkscape"
   version="1.1"
   id="Capa_1"
   x="0px"
   y="0px"
   width="347.182px"
   height="347.182px"
   viewBox="0 0 347.182 347.182"
   style="enable-background:new 0 0 347.182 347.182;"
   xml:space="preserve"
   sodipodi:docname="volume-off.svg"
   inkscape:version="0.92.3 (2405546, 2018-03-11)"><metadata
   id="metadata553"><rdf:RDF><cc:Work
       rdf:about=""><dc:format>image/svg+xml</dc:format><dc:type
         rdf:resource="http://purl.org/dc/dcmitype/StillImage" /></cc:Work></rdf:RDF></metadata><defs
   id="defs551" /><sodipodi:namedview
   pagecolor="#ffffff"
   bordercolor="#666666"
   borderopacity="1"
   objecttolerance="10"
   gridtolerance="10"
   guidetolerance="10"
   inkscape:pageopacity="0"
   inkscape:pageshadow="2"
   inkscape:window-width="640"
   inkscape:window-height="480"
   id="namedview549"
   showgrid="false"
   inkscape:zoom="0.67975873"
   inkscape:cx="173.591"
   inkscape:cy="173.591"
   inkscape:window-x="59"
   inkscape:window-y="27"
   inkscape:window-maximized="0"
   inkscape:current-layer="Capa_1" />
<g
   id="g516"
   style="fill:#6f42c1;fill-opacity:1">
	<path
   d="M277.808,5.426C274.187,1.809,269.902,0,264.954,0c-4.945,0-9.233,1.809-12.847,5.426L157.034,100.5H82.233   c-4.952,0-9.235,1.809-12.851,5.424c-3.617,3.621-5.426,7.901-5.426,12.85v109.634c0,4.948,1.809,9.232,5.426,12.847   c3.619,3.617,7.902,5.428,12.851,5.428h74.798l95.07,95.077c3.62,3.61,7.904,5.421,12.847,5.421c4.955,0,9.236-1.811,12.854-5.421   c3.613-3.617,5.424-7.901,5.424-12.847V18.276C283.225,13.328,281.421,9.042,277.808,5.426z"
   id="path514"
   style="fill:#6f42c1;fill-opacity:1" />
</g>
<g
   id="g518">
</g>
<g
   id="g520">
</g>
<g
   id="g522">
</g>
<g
   id="g524">
</g>
<g
   id="g526">
</g>
<g
   id="g528">
</g>
<g
   id="g530">
</g>
<g
   id="g532">
</g>
<g
   id="g534">
</g>
<g
   id="g536">
</g>
<g
   id="g538">
</g>
<g
   id="g540">
</g>
<g
   id="g542">
</g>
<g
   id="g544">
</g>
<g
   id="g546">
</g>
</svg>